<svg xmlns="http://www.w3.org/2000/svg" viewBox="0 0 1200 675" role="img" aria-label="Capa ilustrativa de Diário de Leitura">
 <defs><linearGradient id="bg" x2="1" y2="1"><stop stop-color="#081323"/><stop offset=".58" stop-color="#53334c"/><stop offset="1" stop-color="#07111e"/></linearGradient><radialGradient id="halo"><stop stop-color="#f5abc9" stop-opacity=".22"/><stop offset="1" stop-color="#f5abc9" stop-opacity="0"/></radialGradient><pattern id="micro" width="34" height="34" patternUnits="userSpaceOnUse"><path d="M34 0H0V34" stroke="#e7f8ff" stroke-opacity=".035" fill="none"/></pattern></defs>
 <rect x="0" y="0" width="1200" height="675" rx="0" fill="url(#bg)" opacity="1" /><rect x="0" y="0" width="1200" height="675" rx="0" fill="url(#micro)" opacity="1" />
 <circle cx="1090" cy="115" r="430" fill="url(#halo)"/>
 <line x1="67" y1="105" x2="1133" y2="105" stroke="#c3e0ee" stroke-width="1" opacity=".19"/>
 <text x="68" y="75" font-family="Inter,Segoe UI,Arial,sans-serif" font-size="17" fill="#e3f2ff" font-weight="750" letter-spacing="1.3">MARCELO GOMES   /   PROJECT GALLERY</text>
 <text x="910" y="75" font-family="Inter,Segoe UI,Arial,sans-serif" font-size="13" fill="#f5abc9" font-weight="750" letter-spacing="1.6">PORTFÓLIO 2026</text>
 <rect x="68" y="172" width="176" height="35" rx="9" fill="#f5abc9" opacity="0.14" stroke="#f5abc9" stroke-opacity=".8"/>
 <text x="83" y="195" font-family="Inter,Segoe UI,Arial,sans-serif" font-size="14" fill="#f5abc9" font-weight="750" letter-spacing=".8">APP • LEITURA</text>
 <text x="68" y="290" font-family="Inter,Segoe UI,Arial,sans-serif" font-size="61" fill="#fff" font-weight="800" >Diário de</text><text x="68" y="361" font-family="Inter,Segoe UI,Arial,sans-serif" font-size="61" fill="#fff" font-weight="800" >Leitura</text>
 <text x="70" y="409" font-family="Inter,Segoe UI,Arial,sans-serif" font-size="20" fill="#bfd5e4" font-weight="500" >Estante, memória e progresso</text>
 <rect x="69" y="457" width="55" height="5" rx="3" fill="#f5abc9" opacity="1" />
 <text x="69" y="501" font-family="Inter,Segoe UI,Arial,sans-serif" font-size="12" fill="#f5abc9" font-weight="700" letter-spacing=".5">JAVASCRIPT</text><text x="220" y="501" font-family="Inter,Segoe UI,Arial,sans-serif" font-size="12" fill="#f5abc9" font-weight="700" letter-spacing=".5">NODE.JS</text><text x="371" y="501" font-family="Inter,Segoe UI,Arial,sans-serif" font-size="12" fill="#f5abc9" font-weight="700" letter-spacing=".5">CAPACITOR</text>
 <rect x="632" y="145" width="508" height="383" rx="24" fill="#101e30" opacity="1" stroke="#537087" stroke-opacity=".45" stroke-width="1.5"/><rect x="632" y="145" width="508" height="42" rx="24" fill="#1a2d40" opacity="1" /><rect x="632" y="170" width="508" height="17" rx="0" fill="#1a2d40" opacity="1" /><circle cx="657" cy="165" r="4" fill="#fa7777"/><circle cx="674" cy="165" r="4" fill="#e5c462"/><circle cx="691" cy="165" r="4" fill="#65d3a2"/><text x="747" y="171" font-family="Inter,Segoe UI,Arial,sans-serif" font-size="12" fill="#98b3cb" font-weight="650" >DIÁRIO DE LEITURA</text><rect x="659" y="211" width="456" height="251" rx="11" fill="#342b40" opacity="1" /><rect x="688" y="252" width="42" height="166" rx="3" fill="#e99ba9" opacity="1" /><rect x="696" y="268" width="26" height="4" rx="2" fill="#fff" opacity="0.66" /><rect x="696" y="379" width="26" height="4" rx="2" fill="#fff" opacity="0.6" /><rect x="752" y="269" width="42" height="149" rx="3" fill="#a4bcd4" opacity="1" /><rect x="760" y="285" width="26" height="4" rx="2" fill="#fff" opacity="0.66" /><rect x="760" y="379" width="26" height="4" rx="2" fill="#fff" opacity="0.6" /><rect x="816" y="252" width="42" height="166" rx="3" fill="#ac9cce" opacity="1" /><rect x="824" y="268" width="26" height="4" rx="2" fill="#fff" opacity="0.66" /><rect x="824" y="379" width="26" height="4" rx="2" fill="#fff" opacity="0.6" /><rect x="880" y="269" width="42" height="149" rx="3" fill="#eec287" opacity="1" /><rect x="888" y="285" width="26" height="4" rx="2" fill="#fff" opacity="0.66" /><rect x="888" y="379" width="26" height="4" rx="2" fill="#fff" opacity="0.6" /><rect x="944" y="252" width="42" height="166" rx="3" fill="#8acbc1" opacity="1" /><rect x="952" y="268" width="26" height="4" rx="2" fill="#fff" opacity="0.66" /><rect x="952" y="379" width="26" height="4" rx="2" fill="#fff" opacity="0.6" /><rect x="1008" y="269" width="42" height="149" rx="3" fill="#d791af" opacity="1" /><rect x="1016" y="285" width="26" height="4" rx="2" fill="#fff" opacity="0.66" /><rect x="1016" y="379" width="26" height="4" rx="2" fill="#fff" opacity="0.6" /><line x1="679" y1="424" x2="1091" y2="424" stroke="#ae8871" stroke-width="11" /><text x="686" y="243" font-family="Inter,Segoe UI,Arial,sans-serif" font-size="14" fill="#faebf6" font-weight="650" >MINHA ESTANTE</text>
 <line x1="67" y1="572" x2="1133" y2="572" stroke="#c3e0ee" stroke-width="1" opacity=".18"/>
 <text x="68" y="605" font-family="Inter,Segoe UI,Arial,sans-serif" font-size="14" fill="#bed1e3" font-weight="600" letter-spacing=".7">CAPA ILUSTRATIVA · NÃO É CAPTURA DE TELA</text>
 <text x="1130" y="605" font-family="Inter,Segoe UI,Arial,sans-serif" font-size="12" fill="#f5abc9" font-weight="700" text-anchor="end">DIÁRIO DE LEITURA</text>
 </svg>