<svg xmlns="http://www.w3.org/2000/svg" viewBox="0 0 1200 675" role="img" aria-label="Capa ilustrativa de GeoTerritórios">
 <defs><linearGradient id="bg" x2="1" y2="1"><stop stop-color="#081323"/><stop offset=".58" stop-color="#1a4d4a"/><stop offset="1" stop-color="#07111e"/></linearGradient><radialGradient id="halo"><stop stop-color="#66e0c6" stop-opacity=".22"/><stop offset="1" stop-color="#66e0c6" stop-opacity="0"/></radialGradient><pattern id="micro" width="34" height="34" patternUnits="userSpaceOnUse"><path d="M34 0H0V34" stroke="#e7f8ff" stroke-opacity=".035" fill="none"/></pattern></defs>
 <rect x="0" y="0" width="1200" height="675" rx="0" fill="url(#bg)" opacity="1" /><rect x="0" y="0" width="1200" height="675" rx="0" fill="url(#micro)" opacity="1" />
 <circle cx="1090" cy="115" r="430" fill="url(#halo)"/>
 <line x1="67" y1="105" x2="1133" y2="105" stroke="#c3e0ee" stroke-width="1" opacity=".19"/>
 <text x="68" y="75" font-family="Inter,Segoe UI,Arial,sans-serif" font-size="17" fill="#e3f2ff" font-weight="750" letter-spacing="1.3">MARCELO GOMES   /   PROJECT GALLERY</text>
 <text x="910" y="75" font-family="Inter,Segoe UI,Arial,sans-serif" font-size="13" fill="#66e0c6" font-weight="750" letter-spacing="1.6">PORTFÓLIO 2026</text>
 <rect x="68" y="172" width="176" height="35" rx="9" fill="#66e0c6" opacity="0.14" stroke="#66e0c6" stroke-opacity=".8"/>
 <text x="83" y="195" font-family="Inter,Segoe UI,Arial,sans-serif" font-size="14" fill="#66e0c6" font-weight="750" letter-spacing=".8">WEB • GEODADOS</text>
 <text x="68" y="290" font-family="Inter,Segoe UI,Arial,sans-serif" font-size="61" fill="#fff" font-weight="800" >GeoTerritórios</text>
 <text x="70" y="337" font-family="Inter,Segoe UI,Arial,sans-serif" font-size="20" fill="#bfd5e4" font-weight="500" >Mapas e cobertura de campo</text>
 <rect x="69" y="385" width="55" height="5" rx="3" fill="#66e0c6" opacity="1" />
 <text x="69" y="429" font-family="Inter,Segoe UI,Arial,sans-serif" font-size="12" fill="#66e0c6" font-weight="700" letter-spacing=".5">REACT</text><text x="220" y="429" font-family="Inter,Segoe UI,Arial,sans-serif" font-size="12" fill="#66e0c6" font-weight="700" letter-spacing=".5">LEAFLET</text><text x="371" y="429" font-family="Inter,Segoe UI,Arial,sans-serif" font-size="12" fill="#66e0c6" font-weight="700" letter-spacing=".5">MAPAS</text>
 <rect x="632" y="145" width="508" height="383" rx="24" fill="#101e30" opacity="1" stroke="#537087" stroke-opacity=".45" stroke-width="1.5"/><rect x="632" y="145" width="508" height="42" rx="24" fill="#1a2d40" opacity="1" /><rect x="632" y="170" width="508" height="17" rx="0" fill="#1a2d40" opacity="1" /><circle cx="657" cy="165" r="4" fill="#fa7777"/><circle cx="674" cy="165" r="4" fill="#e5c462"/><circle cx="691" cy="165" r="4" fill="#65d3a2"/><text x="747" y="171" font-family="Inter,Segoe UI,Arial,sans-serif" font-size="12" fill="#98b3cb" font-weight="650" >GEOTERRITÓRIOS</text><rect x="656" y="205" width="327" height="261" rx="13" fill="#1d414b" opacity="1" /><line x1="670" y1="233" x2="972" y2="226" stroke="#49818a" stroke-width="2" /><line x1="670" y1="281" x2="972" y2="268" stroke="#49818a" stroke-width="2" /><line x1="670" y1="329" x2="972" y2="310" stroke="#49818a" stroke-width="2" /><line x1="670" y1="377" x2="972" y2="352" stroke="#49818a" stroke-width="2" /><line x1="670" y1="425" x2="972" y2="394" stroke="#49818a" stroke-width="2" /><line x1="684" y1="216" x2="682" y2="461" stroke="#49818a" stroke-width="2" /><line x1="748" y1="216" x2="737" y2="461" stroke="#49818a" stroke-width="2" /><line x1="812" y1="216" x2="792" y2="461" stroke="#49818a" stroke-width="2" /><line x1="876" y1="216" x2="847" y2="461" stroke="#49818a" stroke-width="2" /><line x1="940" y1="216" x2="902" y2="461" stroke="#49818a" stroke-width="2" /><path d="M680 393L734 361L771 379L807 311L855 337L909 266L968 290" fill="none" stroke="#66e0c6" stroke-width="6" stroke-linecap="round" stroke-dasharray="14 9"/><path d="M715 300c-12 -23 22 -23 10 0l-5 12Z" fill="#66e0c6"/><path d="M820 336c-12 -23 22 -23 10 0l-5 12Z" fill="#66e0c6"/><path d="M925 372c-12 -23 22 -23 10 0l-5 12Z" fill="#66e0c6"/><rect x="997" y="205" width="133" height="75" rx="12" fill="#1e3448" opacity="1" /><text x="1011" y="230" font-family="Inter,Segoe UI,Arial,sans-serif" font-size="11" fill="#a9bed0" font-weight="500" >COBERTURA</text><text x="1011" y="260" font-family="Inter,Segoe UI,Arial,sans-serif" font-size="25" fill="#ecf8fc" font-weight="700" >78%</text><rect x="997" y="298" width="133" height="75" rx="12" fill="#1e3448" opacity="1" /><text x="1011" y="323" font-family="Inter,Segoe UI,Arial,sans-serif" font-size="11" fill="#a9bed0" font-weight="500" >ROTAS</text><text x="1011" y="353" font-family="Inter,Segoe UI,Arial,sans-serif" font-size="25" fill="#ecf8fc" font-weight="700" >14</text><rect x="997" y="391" width="133" height="75" rx="12" fill="#1e3448" opacity="1" /><text x="1011" y="416" font-family="Inter,Segoe UI,Arial,sans-serif" font-size="11" fill="#a9bed0" font-weight="500" >PENDENTES</text><text x="1011" y="446" font-family="Inter,Segoe UI,Arial,sans-serif" font-size="25" fill="#ecf8fc" font-weight="700" >05</text>
 <line x1="67" y1="572" x2="1133" y2="572" stroke="#c3e0ee" stroke-width="1" opacity=".18"/>
 <text x="68" y="605" font-family="Inter,Segoe UI,Arial,sans-serif" font-size="14" fill="#bed1e3" font-weight="600" letter-spacing=".7">CAPA ILUSTRATIVA · NÃO É CAPTURA DE TELA</text>
 <text x="1130" y="605" font-family="Inter,Segoe UI,Arial,sans-serif" font-size="12" fill="#66e0c6" font-weight="700" text-anchor="end">GEOTERRITÓRIOS</text>
 </svg>