<svg xmlns="http://www.w3.org/2000/svg" viewBox="0 0 1200 675" role="img" aria-label="Capa ilustrativa de PeritoLex">
 <defs><linearGradient id="bg" x2="1" y2="1"><stop stop-color="#081323"/><stop offset=".58" stop-color="#553722"/><stop offset="1" stop-color="#07111e"/></linearGradient><radialGradient id="halo"><stop stop-color="#f5bc75" stop-opacity=".22"/><stop offset="1" stop-color="#f5bc75" stop-opacity="0"/></radialGradient><pattern id="micro" width="34" height="34" patternUnits="userSpaceOnUse"><path d="M34 0H0V34" stroke="#e7f8ff" stroke-opacity=".035" fill="none"/></pattern></defs>
 <rect x="0" y="0" width="1200" height="675" rx="0" fill="url(#bg)" opacity="1" /><rect x="0" y="0" width="1200" height="675" rx="0" fill="url(#micro)" opacity="1" />
 <circle cx="1090" cy="115" r="430" fill="url(#halo)"/>
 <line x1="67" y1="105" x2="1133" y2="105" stroke="#c3e0ee" stroke-width="1" opacity=".19"/>
 <text x="68" y="75" font-family="Inter,Segoe UI,Arial,sans-serif" font-size="17" fill="#e3f2ff" font-weight="750" letter-spacing="1.3">MARCELO GOMES   /   PROJECT GALLERY</text>
 <text x="910" y="75" font-family="Inter,Segoe UI,Arial,sans-serif" font-size="13" fill="#f5bc75" font-weight="750" letter-spacing="1.6">PORTFÓLIO 2026</text>
 <rect x="68" y="172" width="176" height="35" rx="9" fill="#f5bc75" opacity="0.14" stroke="#f5bc75" stroke-opacity=".8"/>
 <text x="83" y="195" font-family="Inter,Segoe UI,Arial,sans-serif" font-size="14" fill="#f5bc75" font-weight="750" letter-spacing=".8">WEB • JURÍDICO</text>
 <text x="68" y="290" font-family="Inter,Segoe UI,Arial,sans-serif" font-size="61" fill="#fff" font-weight="800" >PeritoLex</text>
 <text x="70" y="337" font-family="Inter,Segoe UI,Arial,sans-serif" font-size="20" fill="#bfd5e4" font-weight="500" >Rotinas jurídicas e periciais</text>
 <rect x="69" y="385" width="55" height="5" rx="3" fill="#f5bc75" opacity="1" />
 <text x="69" y="429" font-family="Inter,Segoe UI,Arial,sans-serif" font-size="12" fill="#f5bc75" font-weight="700" letter-spacing=".5">REACT</text><text x="220" y="429" font-family="Inter,Segoe UI,Arial,sans-serif" font-size="12" fill="#f5bc75" font-weight="700" letter-spacing=".5">DASHBOARD</text><text x="371" y="429" font-family="Inter,Segoe UI,Arial,sans-serif" font-size="12" fill="#f5bc75" font-weight="700" letter-spacing=".5">CI</text>
 <rect x="632" y="145" width="508" height="383" rx="24" fill="#101e30" opacity="1" stroke="#537087" stroke-opacity=".45" stroke-width="1.5"/><rect x="632" y="145" width="508" height="42" rx="24" fill="#1a2d40" opacity="1" /><rect x="632" y="170" width="508" height="17" rx="0" fill="#1a2d40" opacity="1" /><circle cx="657" cy="165" r="4" fill="#fa7777"/><circle cx="674" cy="165" r="4" fill="#e5c462"/><circle cx="691" cy="165" r="4" fill="#65d3a2"/><text x="747" y="171" font-family="Inter,Segoe UI,Arial,sans-serif" font-size="12" fill="#98b3cb" font-weight="650" >PERITOLEX</text><rect x="655" y="205" width="133" height="75" rx="12" fill="#1e3448" opacity="1" /><text x="669" y="230" font-family="Inter,Segoe UI,Arial,sans-serif" font-size="11" fill="#a9bed0" font-weight="500" >PROCESSOS</text><text x="669" y="260" font-family="Inter,Segoe UI,Arial,sans-serif" font-size="25" fill="#ecf8fc" font-weight="700" >42</text><rect x="802" y="205" width="133" height="75" rx="12" fill="#1e3448" opacity="1" /><text x="816" y="230" font-family="Inter,Segoe UI,Arial,sans-serif" font-size="11" fill="#a9bed0" font-weight="500" >PRAZOS</text><text x="816" y="260" font-family="Inter,Segoe UI,Arial,sans-serif" font-size="25" fill="#ecf8fc" font-weight="700" >06</text><rect x="949" y="205" width="133" height="75" rx="12" fill="#1e3448" opacity="1" /><text x="963" y="230" font-family="Inter,Segoe UI,Arial,sans-serif" font-size="11" fill="#a9bed0" font-weight="500" >ALERTAS</text><text x="963" y="260" font-family="Inter,Segoe UI,Arial,sans-serif" font-size="25" fill="#ecf8fc" font-weight="700" >03</text><rect x="655" y="309" width="462" height="44" rx="9" fill="#22384b" opacity="1" /><rect x="670" y="319" width="5" height="24" rx="3" fill="#f5bc75" opacity="1" /><text x="688" y="328" font-family="Inter,Segoe UI,Arial,sans-serif" font-size="13" fill="#e9f3fc" font-weight="600" >Processo em análise</text><text x="688" y="342" font-family="Inter,Segoe UI,Arial,sans-serif" font-size="9" fill="#98abc0" font-weight="400" >Andamento organizado</text><rect x="1031" y="324" width="62" height="15" rx="7" fill="#285048" opacity="1" /><rect x="655" y="364" width="462" height="44" rx="9" fill="#22384b" opacity="1" /><rect x="670" y="374" width="5" height="24" rx="3" fill="#ffad72" opacity="1" /><text x="688" y="383" font-family="Inter,Segoe UI,Arial,sans-serif" font-size="13" fill="#e9f3fc" font-weight="600" >Prazo de manifestação</text><text x="688" y="397" font-family="Inter,Segoe UI,Arial,sans-serif" font-size="9" fill="#98abc0" font-weight="400" >Vencimento próximo</text><rect x="1031" y="379" width="62" height="15" rx="7" fill="#7e4c34" opacity="1" /><rect x="655" y="419" width="462" height="44" rx="9" fill="#22384b" opacity="1" /><rect x="670" y="429" width="5" height="24" rx="3" fill="#f5bc75" opacity="1" /><text x="688" y="438" font-family="Inter,Segoe UI,Arial,sans-serif" font-size="13" fill="#e9f3fc" font-weight="600" >Documento recebido</text><text x="688" y="452" font-family="Inter,Segoe UI,Arial,sans-serif" font-size="9" fill="#98abc0" font-weight="400" >Arquivo vinculado</text><rect x="1031" y="434" width="62" height="15" rx="7" fill="#285048" opacity="1" />
 <line x1="67" y1="572" x2="1133" y2="572" stroke="#c3e0ee" stroke-width="1" opacity=".18"/>
 <text x="68" y="605" font-family="Inter,Segoe UI,Arial,sans-serif" font-size="14" fill="#bed1e3" font-weight="600" letter-spacing=".7">CAPA ILUSTRATIVA · NÃO É CAPTURA DE TELA</text>
 <text x="1130" y="605" font-family="Inter,Segoe UI,Arial,sans-serif" font-size="12" fill="#f5bc75" font-weight="700" text-anchor="end">PERITOLEX</text>
 </svg>